<?xml version="1.0" encoding="UTF-8" standalone="no"?>
<!DOCTYPE svg PUBLIC "-//W3C//DTD SVG 1.1//EN" "http://www.w3.org/Graphics/SVG/1.1/DTD/svg11.dtd">
<svg width="100%" height="100%" viewBox="0 0 506 400" version="1.1" xmlns="http://www.w3.org/2000/svg" xmlns:xlink="http://www.w3.org/1999/xlink" xml:space="preserve" xmlns:serif="http://www.serif.com/" style="fill-rule:evenodd;clip-rule:evenodd;stroke-linejoin:round;stroke-miterlimit:2;">
    <g transform="matrix(1,0,0,1,-5101.67,-2066.57)">
        <g transform="matrix(0.968756,0,0,1,5377.1,455.407)">
            <g transform="matrix(0.910979,0,0,0.910979,-591.63,188.19)">
                <rect x="337.351" y="1562.03" width="572.392" height="439.075" style="fill:none;"/>
                <clipPath id="_clip1">
                    <rect x="337.351" y="1562.03" width="572.392" height="439.075"/>
                </clipPath>
                <g clip-path="url(#_clip1)">
                    <g transform="matrix(0.325871,0,0,1.09404,344.553,1586.05)">
                        <g transform="matrix(4.16667,0,0,1.24108,0,0)">
                            <path d="M475.064,305.646C459.229,296.985 439.858,288.131 416.256,288.131C392.654,288.131 373.284,296.985 357.448,305.646L356.729,304.33C372.73,295.578 392.316,286.631 416.256,286.631C440.196,286.631 459.782,295.578 475.784,304.33L475.064,305.646Z" style="fill:rgb(83,12,159);fill-rule:nonzero;"/>
                        </g>
                        <g transform="matrix(4.16667,0,0,1.24108,0,0)">
                            <path d="M168.675,305.646C152.839,296.985 133.469,288.131 109.867,288.131C86.263,288.131 66.894,296.985 51.059,305.646L50.339,304.33C66.34,295.578 85.925,286.631 109.867,286.631C133.807,286.631 153.393,295.578 169.395,304.33L168.675,305.646Z" style="fill:rgb(83,12,159);fill-rule:nonzero;"/>
                        </g>
                        <g transform="matrix(4.16667,0,0,1.24108,0,0)">
                            <path d="M492.471,305.634C469.606,292.082 445.963,278.068 416.256,278.068C386.549,278.068 362.906,292.082 340.042,305.634L339.277,304.343C362.315,290.688 386.138,276.568 416.256,276.568C446.375,276.568 470.197,290.688 493.236,304.343L492.471,305.634Z" style="fill:rgb(83,12,159);fill-rule:nonzero;"/>
                        </g>
                        <g transform="matrix(4.16667,0,0,1.24108,0,0)">
                            <path d="M186.082,305.634C163.213,292.08 139.572,278.068 109.867,278.068C80.16,278.068 56.517,292.081 33.653,305.632L32.889,304.342C55.926,290.688 79.749,276.568 109.867,276.568C139.983,276.568 163.804,290.687 186.84,304.34L186.082,305.634Z" style="fill:rgb(83,12,159);fill-rule:nonzero;"/>
                        </g>
                        <g transform="matrix(4.16667,0,0,1.24108,0,0)">
                            <path d="M509.924,305.646C504.037,302.427 498.159,298.942 492.475,295.573C469.609,282.021 445.964,268.006 416.256,268.006C386.549,268.006 362.906,282.02 340.041,295.572C334.356,298.941 328.478,302.426 322.59,305.646L321.871,304.33C327.735,301.122 333.602,297.645 339.276,294.281C362.315,280.626 386.138,266.506 416.256,266.506C446.375,266.506 470.2,280.627 493.239,294.282C498.913,297.646 504.78,301.123 510.644,304.33L509.924,305.646Z" style="fill:rgb(83,12,159);fill-rule:nonzero;"/>
                        </g>
                        <g transform="matrix(4.16667,0,0,1.24108,0,0)">
                            <path d="M203.534,305.646C197.646,302.426 191.766,298.941 186.081,295.571C163.216,282.02 139.573,268.006 109.867,268.006C80.159,268.006 56.516,282.02 33.651,295.571C27.965,298.941 22.086,302.426 16.198,305.646L15.479,304.33C21.344,301.122 27.211,297.645 32.886,294.281C55.925,280.626 79.748,266.506 109.867,266.506C139.984,266.506 163.807,280.626 186.845,294.28C192.52,297.645 198.388,301.122 204.253,304.33L203.534,305.646Z" style="fill:rgb(83,12,159);fill-rule:nonzero;"/>
                        </g>
                        <g transform="matrix(4.16667,0,0,1.24108,0,0)">
                            <path d="M531.145,305.687C517.56,300.379 504.808,292.821 492.476,285.512C469.61,271.959 445.966,257.945 416.256,257.945C386.549,257.945 362.906,271.958 340.041,285.51C327.708,292.82 314.954,300.379 301.366,305.687L300.82,304.29C314.294,299.026 326.994,291.499 339.276,284.22C362.315,270.564 386.138,256.445 416.256,256.445C446.377,256.445 470.201,270.565 493.24,284.222C505.521,291.5 518.219,299.026 531.691,304.29L531.145,305.687Z" style="fill:rgb(83,12,159);fill-rule:nonzero;"/>
                        </g>
                        <g transform="matrix(4.16667,0,0,1.24108,0,0)">
                            <path d="M224.756,305.687C211.169,300.379 198.416,292.82 186.082,285.511C163.217,271.959 139.574,257.945 109.867,257.945C80.159,257.945 56.517,271.958 33.653,285.51C21.399,292.771 8.729,300.281 -4.755,305.582L-5.304,304.186C8.068,298.93 20.686,291.451 32.888,284.219C55.926,270.564 79.748,256.445 109.867,256.445C139.985,256.445 163.808,270.565 186.847,284.22C199.129,291.499 211.829,299.026 225.302,304.29L224.756,305.687Z" style="fill:rgb(83,12,159);fill-rule:nonzero;"/>
                        </g>
                        <g transform="matrix(4.16667,0,0,1.24108,0,0)">
                            <path d="M263.062,303.223C232.943,303.223 209.12,289.103 186.082,275.448C163.217,261.896 139.574,247.883 109.867,247.883C80.159,247.883 56.516,261.896 33.652,275.447C21.399,282.71 8.729,290.22 -4.755,295.521L-5.304,294.124C8.068,288.867 20.685,281.39 32.887,274.157C55.925,260.503 79.748,246.383 109.867,246.383C139.985,246.383 163.808,260.503 186.847,274.157C209.711,287.709 233.354,301.723 263.062,301.723C292.769,301.723 316.412,287.709 339.276,274.157C362.314,260.503 386.137,246.383 416.256,246.383L416.256,247.883C386.548,247.883 362.905,261.896 340.041,275.448C317.003,289.103 293.18,303.223 263.062,303.223Z" style="fill:rgb(83,12,159);fill-rule:nonzero;"/>
                        </g>
                        <g transform="matrix(4.16667,0,0,1.24108,0,0)">
                            <path d="M263.062,293.161C232.943,293.161 209.12,279.041 186.082,265.386C163.217,251.834 139.574,237.82 109.867,237.82C80.159,237.82 56.517,251.834 33.652,265.386C21.399,272.648 8.729,280.158 -4.755,285.459L-5.304,284.063C8.068,278.806 20.686,271.327 32.887,264.096C55.925,250.44 79.748,236.32 109.867,236.32C139.985,236.32 163.808,250.44 186.847,264.096C209.711,277.647 233.354,291.661 263.062,291.661C292.769,291.661 316.412,277.647 339.276,264.096C362.314,250.44 386.137,236.32 416.256,236.32L416.256,237.82C386.548,237.82 362.906,251.834 340.041,265.386C317.003,279.041 293.18,293.161 263.062,293.161Z" style="fill:rgb(83,12,159);fill-rule:nonzero;"/>
                        </g>
                        <g transform="matrix(4.16667,0,0,1.24108,0,0)">
                            <path d="M263.062,283.1C232.943,283.1 209.12,268.979 186.082,255.325C163.217,241.773 139.574,227.76 109.867,227.76C80.159,227.76 56.517,241.772 33.653,255.324C21.399,262.586 8.729,270.096 -4.755,275.396L-5.304,274C8.068,268.744 20.686,261.266 32.888,254.033C55.926,240.379 79.749,226.26 109.867,226.26C139.985,226.26 163.808,240.38 186.847,254.034C209.711,267.586 233.354,281.6 263.062,281.6C292.769,281.6 316.412,267.586 339.276,254.034C362.314,240.38 386.137,226.26 416.256,226.26L416.256,227.76C386.548,227.76 362.905,241.773 340.041,255.325C317.003,268.979 293.18,283.1 263.062,283.1Z" style="fill:rgb(83,12,159);fill-rule:nonzero;"/>
                        </g>
                        <g transform="matrix(4.16667,0,0,1.24108,0,0)">
                            <path d="M263.062,273.037C232.943,273.037 209.12,258.917 186.082,245.263C163.217,231.711 139.574,217.697 109.867,217.697C80.159,217.697 56.516,231.71 33.652,245.262C21.399,252.524 8.729,260.034 -4.755,265.335L-5.304,263.938C8.068,258.682 20.685,251.204 32.887,243.972C55.925,230.317 79.748,216.197 109.867,216.197C139.985,216.197 163.808,230.317 186.847,243.972C209.711,257.524 233.354,271.537 263.062,271.537C292.769,271.537 316.412,257.524 339.276,243.972C362.314,230.317 386.137,216.197 416.256,216.197L416.256,217.697C386.548,217.697 362.905,231.711 340.041,245.263C317.003,258.917 293.18,273.037 263.062,273.037Z" style="fill:rgb(83,12,159);fill-rule:nonzero;"/>
                        </g>
                        <g transform="matrix(4.16667,0,0,1.24108,0,0)">
                            <path d="M263.062,262.976C232.943,262.976 209.12,248.855 186.082,235.201C163.217,221.649 139.574,207.636 109.867,207.636C80.16,207.636 56.517,221.649 33.653,235.2C21.4,242.463 8.729,249.973 -4.755,255.273L-5.304,253.877C8.068,248.621 20.686,241.143 32.888,233.91C55.926,220.256 79.749,206.136 109.867,206.136C139.985,206.136 163.808,220.256 186.847,233.911C209.711,247.463 233.354,261.477 263.062,261.477C292.769,261.477 316.412,247.463 339.276,233.911C362.314,220.256 386.137,206.136 416.256,206.136L416.256,207.636C386.548,207.636 362.905,221.649 340.041,235.201C317.003,248.855 293.18,262.976 263.062,262.976Z" style="fill:rgb(83,12,159);fill-rule:nonzero;"/>
                        </g>
                        <g transform="matrix(4.16667,0,0,1.24108,0,0)">
                            <path d="M263.062,252.914C232.943,252.914 209.12,238.794 186.082,225.14C163.217,211.588 139.574,197.574 109.867,197.574C80.159,197.574 56.516,211.587 33.652,225.139C21.399,232.401 8.729,239.911 -4.755,245.212L-5.304,243.815C8.068,238.559 20.685,231.081 32.887,223.849C55.925,210.194 79.748,196.074 109.867,196.074C139.985,196.074 163.808,210.194 186.847,223.849C209.711,237.4 233.354,251.414 263.062,251.414C292.769,251.414 316.412,237.4 339.276,223.849C362.314,210.194 386.137,196.074 416.256,196.074L416.256,197.574C386.548,197.574 362.905,211.588 340.041,225.14C317.003,238.794 293.18,252.914 263.062,252.914Z" style="fill:rgb(83,12,159);fill-rule:nonzero;"/>
                        </g>
                        <g transform="matrix(4.16667,0,0,1.24108,0,0)">
                            <path d="M263.062,242.852C232.943,242.852 209.12,228.731 186.082,215.077C163.217,201.525 139.574,187.512 109.867,187.512C80.16,187.512 56.517,201.525 33.653,215.076C21.4,222.339 8.729,229.849 -4.755,235.149L-5.304,233.753C8.068,228.497 20.686,221.019 32.888,213.786C55.926,200.131 79.749,186.012 109.867,186.012C139.985,186.012 163.808,200.132 186.847,213.787C209.711,227.339 233.354,241.352 263.062,241.352C292.769,241.352 316.412,227.339 339.276,213.787C362.314,200.132 386.137,186.012 416.256,186.012L416.256,187.512C386.548,187.512 362.905,201.525 340.041,215.077C317.003,228.731 293.18,242.852 263.062,242.852Z" style="fill:rgb(83,12,159);fill-rule:nonzero;"/>
                        </g>
                        <g transform="matrix(4.16667,0,0,1.24108,0,0)">
                            <path d="M263.062,232.79C232.943,232.79 209.12,218.67 186.082,205.016C163.217,191.464 139.574,177.451 109.867,177.451C80.159,177.451 56.517,191.463 33.652,205.015C21.399,212.277 8.729,219.787 -4.755,225.088L-5.304,223.691C8.068,218.435 20.686,210.957 32.887,203.725C55.925,190.07 79.748,175.951 109.867,175.951C139.985,175.951 163.808,190.07 186.847,203.725C209.711,217.277 233.354,231.29 263.062,231.29C292.769,231.29 316.412,217.277 339.276,203.725C362.314,190.07 386.137,175.951 416.256,175.951L416.256,177.451C386.548,177.451 362.905,191.464 340.041,205.016C317.003,218.67 293.18,232.79 263.062,232.79Z" style="fill:rgb(83,12,159);fill-rule:nonzero;"/>
                        </g>
                        <g transform="matrix(4.16667,0,0,1.24108,0,0)">
                            <path d="M263.062,222.729C232.943,222.729 209.12,208.609 186.082,194.954C163.217,181.402 139.574,167.389 109.867,167.389C80.159,167.389 56.517,181.402 33.652,194.954C21.399,202.216 8.729,209.726 -4.755,215.026L-5.304,213.63C8.068,208.374 20.686,200.895 32.887,193.663C55.925,180.009 79.748,165.889 109.867,165.889C139.985,165.889 163.808,180.009 186.847,193.664C209.711,207.215 233.354,221.229 263.062,221.229C292.769,221.229 316.412,207.215 339.276,193.664C362.314,180.009 386.137,165.889 416.256,165.889L416.256,167.389C386.548,167.389 362.905,181.402 340.041,194.954C317.003,208.609 293.18,222.729 263.062,222.729Z" style="fill:rgb(83,12,159);fill-rule:nonzero;"/>
                        </g>
                        <g transform="matrix(4.16667,0,0,1.24108,0,0)">
                            <path d="M263.062,212.667C232.943,212.667 209.12,198.547 186.082,184.892C163.217,171.34 139.574,157.327 109.867,157.327C80.159,157.327 56.517,171.34 33.652,184.892C21.399,192.154 8.729,199.664 -4.755,204.964L-5.304,203.568C8.068,198.312 20.686,190.833 32.887,183.601C55.925,169.947 79.748,155.827 109.867,155.827C139.985,155.827 163.808,169.947 186.847,183.602C209.711,197.154 233.354,211.167 263.062,211.167C292.769,211.167 316.412,197.154 339.276,183.602C362.314,169.947 386.137,155.827 416.256,155.827L416.256,157.327C386.548,157.327 362.905,171.34 340.041,184.892C317.003,198.547 293.18,212.667 263.062,212.667Z" style="fill:rgb(83,12,159);fill-rule:nonzero;"/>
                        </g>
                        <g transform="matrix(4.16667,0,0,1.24108,0,0)">
                            <path d="M263.062,202.605C232.943,202.605 209.12,188.485 186.082,174.831C163.217,161.278 139.574,147.265 109.867,147.265C80.159,147.265 56.517,161.278 33.652,174.83C21.399,182.092 8.729,189.602 -4.755,194.903L-5.304,193.507C8.068,188.25 20.686,180.771 32.888,173.54C55.926,159.885 79.748,145.765 109.867,145.765C139.985,145.765 163.808,159.885 186.847,173.54C209.711,187.092 233.354,201.105 263.062,201.105C292.769,201.105 316.412,187.092 339.276,173.54C362.314,159.885 386.137,145.765 416.256,145.765L416.256,147.265C386.548,147.265 362.905,161.278 340.041,174.831C317.003,188.485 293.18,202.605 263.062,202.605Z" style="fill:rgb(83,12,159);fill-rule:nonzero;"/>
                        </g>
                        <g transform="matrix(4.16667,0,0,1.24108,0,0)">
                            <path d="M263.062,192.543C232.943,192.543 209.12,178.423 186.082,164.769C163.217,151.217 139.574,137.204 109.867,137.204C80.159,137.204 56.517,151.216 33.652,164.768C21.399,172.03 8.729,179.54 -4.755,184.84L-5.304,183.444C8.068,178.188 20.686,170.709 32.887,163.478C55.925,149.823 79.748,135.704 109.867,135.704C139.985,135.704 163.808,149.823 186.847,163.478C209.711,177.03 233.354,191.043 263.062,191.043C292.769,191.043 316.412,177.03 339.276,163.478C362.314,149.823 386.137,135.704 416.256,135.704L416.256,137.204C386.548,137.204 362.905,151.217 340.041,164.769C317.003,178.423 293.18,192.543 263.062,192.543Z" style="fill:rgb(83,12,159);fill-rule:nonzero;"/>
                        </g>
                        <g transform="matrix(4.16667,0,0,1.24108,0,0)">
                            <path d="M263.062,182.482C232.943,182.482 209.12,168.362 186.082,154.707C163.217,141.155 139.574,127.142 109.867,127.142C80.159,127.142 56.517,141.155 33.652,154.707C21.399,161.969 8.729,169.479 -4.755,174.779L-5.304,173.383C8.068,168.126 20.686,160.648 32.887,153.416C55.925,139.762 79.748,125.642 109.867,125.642C139.985,125.642 163.808,139.762 186.847,153.417C209.711,166.969 233.354,180.982 263.062,180.982C292.769,180.982 316.412,166.969 339.276,153.417C362.314,139.762 386.137,125.642 416.256,125.642L416.256,127.142C386.548,127.142 362.905,141.155 340.041,154.707C317.003,168.362 293.18,182.482 263.062,182.482Z" style="fill:rgb(83,12,159);fill-rule:nonzero;"/>
                        </g>
                        <g transform="matrix(4.16667,0,0,1.24108,0,0)">
                            <path d="M263.062,172.42C232.943,172.42 209.12,158.3 186.082,144.645C163.217,131.093 139.574,117.08 109.867,117.08C80.159,117.08 56.516,131.093 33.652,144.645C21.399,151.907 8.729,159.417 -4.755,164.717L-5.304,163.321C8.068,158.065 20.685,150.586 32.887,143.354C55.925,129.7 79.748,115.58 109.867,115.58C139.985,115.58 163.808,129.7 186.847,143.355C209.711,156.907 233.354,170.92 263.062,170.92C292.769,170.92 316.412,156.907 339.276,143.355C362.314,129.7 386.137,115.58 416.256,115.58L416.256,117.08C386.548,117.08 362.905,131.093 340.041,144.645C317.003,158.3 293.18,172.42 263.062,172.42Z" style="fill:rgb(83,12,159);fill-rule:nonzero;"/>
                        </g>
                        <g transform="matrix(4.16667,0,0,1.24108,0,0)">
                            <path d="M263.062,162.358C232.943,162.358 209.12,148.238 186.082,134.583C163.217,121.031 139.574,107.018 109.867,107.018C80.159,107.018 56.516,121.031 33.652,134.583C21.399,141.846 8.729,149.355 -4.755,154.656L-5.304,153.26C8.068,148.003 20.685,140.525 32.887,133.293C55.925,119.638 79.748,105.518 109.867,105.518C139.985,105.518 163.808,119.638 186.847,133.293C209.711,146.845 233.354,160.858 263.062,160.858C292.769,160.858 316.412,146.845 339.276,133.293C362.314,119.638 386.137,105.518 416.256,105.518L416.256,107.018C386.548,107.018 362.905,121.031 340.041,134.583C317.003,148.238 293.18,162.358 263.062,162.358Z" style="fill:rgb(83,12,159);fill-rule:nonzero;"/>
                        </g>
                        <g transform="matrix(4.16667,0,0,1.24108,0,0)">
                            <path d="M263.062,152.296C232.943,152.296 209.12,138.177 186.082,124.522C163.217,110.97 139.574,96.957 109.867,96.957C80.159,96.957 56.516,110.97 33.652,124.521C21.399,131.783 8.729,139.293 -4.755,144.594L-5.304,143.197C8.068,137.941 20.685,130.463 32.887,123.231C55.925,109.577 79.748,95.457 109.867,95.457C139.985,95.457 163.808,109.577 186.847,123.231C209.711,136.783 233.354,150.796 263.062,150.796C292.769,150.796 316.412,136.783 339.276,123.231C362.314,109.577 386.137,95.457 416.256,95.457L416.256,96.957C386.548,96.957 362.905,110.97 340.041,124.522C317.003,138.177 293.18,152.296 263.062,152.296Z" style="fill:rgb(83,12,159);fill-rule:nonzero;"/>
                        </g>
                        <g transform="matrix(4.16667,0,0,1.24108,0,0)">
                            <path d="M263.062,142.235C232.943,142.235 209.12,128.115 186.082,114.46C163.217,100.908 139.574,86.895 109.867,86.895C80.159,86.895 56.517,100.908 33.652,114.459C21.399,121.722 8.729,129.231 -4.755,134.532L-5.304,133.136C8.068,127.879 20.686,120.401 32.887,113.169C55.925,99.515 79.748,85.395 109.867,85.395C139.985,85.395 163.808,99.515 186.847,113.17C209.711,126.722 233.354,140.735 263.062,140.735C292.769,140.735 316.412,126.722 339.276,113.17C362.314,99.515 386.137,85.395 416.256,85.395L416.256,86.895C386.548,86.895 362.905,100.908 340.041,114.46C317.003,128.115 293.18,142.235 263.062,142.235Z" style="fill:rgb(83,12,159);fill-rule:nonzero;"/>
                        </g>
                        <g transform="matrix(4.16667,0,0,1.24108,0,0)">
                            <path d="M263.062,132.173C232.943,132.173 209.12,118.053 186.082,104.398C163.217,90.847 139.574,76.833 109.867,76.833C80.159,76.833 56.516,90.847 33.652,104.398C21.399,111.66 8.729,119.169 -4.755,124.47L-5.304,123.074C8.068,117.818 20.685,110.339 32.887,103.107C55.925,89.453 79.748,75.333 109.867,75.333C139.985,75.333 163.808,89.453 186.847,103.108C209.711,116.66 233.354,130.673 263.062,130.673C292.769,130.673 316.412,116.66 339.276,103.108C362.314,89.453 386.137,75.333 416.256,75.333L416.256,76.833C386.548,76.833 362.905,90.847 340.041,104.398C317.003,118.053 293.18,132.173 263.062,132.173Z" style="fill:rgb(83,12,159);fill-rule:nonzero;"/>
                        </g>
                        <g transform="matrix(4.16667,0,0,1.24108,0,0)">
                            <path d="M263.062,122.111C232.943,122.111 209.12,107.992 186.082,94.337C163.217,80.785 139.574,66.772 109.867,66.772C80.16,66.772 56.518,80.785 33.653,94.336C21.4,101.598 8.729,109.107 -4.755,114.408L-5.304,113.012C8.068,107.755 20.687,100.277 32.889,93.045C55.926,79.391 79.749,65.272 109.867,65.272C139.985,65.272 163.808,79.392 186.847,93.047C209.711,106.598 233.354,120.611 263.062,120.611C292.769,120.611 316.412,106.598 339.276,93.047C362.314,79.392 386.137,65.272 416.256,65.272L416.256,66.772C386.548,66.772 362.905,80.785 340.041,94.337C317.003,107.992 293.18,122.111 263.062,122.111Z" style="fill:rgb(83,12,159);fill-rule:nonzero;"/>
                        </g>
                        <g transform="matrix(4.16667,0,0,1.24108,0,0)">
                            <path d="M263.062,112.049C232.943,112.049 209.12,97.93 186.082,84.275C163.217,70.724 139.574,56.71 109.867,56.71C80.159,56.71 56.516,70.724 33.651,84.275C21.398,91.537 8.729,99.047 -4.755,104.347L-5.304,102.951C8.068,97.695 20.685,90.217 32.887,82.985C55.925,69.33 79.748,55.21 109.867,55.21C139.985,55.21 163.808,69.33 186.847,82.985C209.711,96.537 233.354,110.549 263.062,110.549C292.769,110.549 316.412,96.537 339.276,82.985C362.314,69.33 386.137,55.21 416.256,55.21L416.256,56.71C386.548,56.71 362.905,70.724 340.041,84.275C317.003,97.93 293.18,112.049 263.062,112.049Z" style="fill:rgb(83,12,159);fill-rule:nonzero;"/>
                        </g>
                        <g transform="matrix(4.16667,0,0,1.24108,0,0)">
                            <path d="M263.062,101.987C232.943,101.987 209.12,87.868 186.082,74.213C163.217,60.662 139.574,46.648 109.867,46.648C80.159,46.648 56.517,60.661 33.652,74.213C21.399,81.475 8.729,88.985 -4.755,94.285L-5.304,92.889C8.068,87.633 20.686,80.154 32.887,72.922C55.925,59.268 79.748,45.148 109.867,45.148C139.985,45.148 163.808,59.268 186.847,72.923C209.711,86.475 233.354,100.487 263.062,100.487C292.769,100.487 316.412,86.475 339.276,72.923C362.314,59.268 386.137,45.148 416.256,45.148L416.256,46.648C386.548,46.648 362.905,60.662 340.041,74.213C317.003,87.868 293.18,101.987 263.062,101.987Z" style="fill:rgb(83,12,159);fill-rule:nonzero;"/>
                        </g>
                        <g transform="matrix(4.16667,0,0,1.24108,0,0)">
                            <path d="M263.062,91.926C232.943,91.926 209.12,77.807 186.082,64.151C163.217,50.6 139.574,36.586 109.867,36.586C80.159,36.586 56.517,50.6 33.652,64.151C21.399,71.414 8.729,78.923 -4.755,84.224L-5.304,82.828C8.068,77.571 20.686,70.093 32.888,62.861C55.926,49.206 79.748,35.086 109.867,35.086C139.985,35.086 163.808,49.206 186.847,62.861C209.711,76.413 233.354,90.426 263.062,90.426C292.769,90.426 316.412,76.413 339.276,62.861C362.314,49.206 386.137,35.086 416.256,35.086L416.256,36.586C386.548,36.586 362.905,50.6 340.041,64.151C317.003,77.807 293.18,91.926 263.062,91.926Z" style="fill:rgb(83,12,159);fill-rule:nonzero;"/>
                        </g>
                        <g transform="matrix(4.16667,0,0,1.24108,0,0)">
                            <path d="M263.062,81.864C232.943,81.864 209.12,67.745 186.082,54.09C163.217,40.538 139.574,26.525 109.867,26.525C80.159,26.525 56.517,40.538 33.652,54.089C21.399,61.352 8.729,68.861 -4.755,74.162L-5.304,72.766C8.068,67.509 20.686,60.031 32.887,52.799C55.925,39.144 79.748,25.025 109.867,25.025C139.985,25.025 163.808,39.144 186.847,52.799C209.711,66.351 233.354,80.364 263.062,80.364C292.769,80.364 316.412,66.351 339.276,52.799C362.314,39.144 386.137,25.025 416.256,25.025L416.256,26.525C386.548,26.525 362.905,40.538 340.041,54.09C317.003,67.745 293.18,81.864 263.062,81.864Z" style="fill:rgb(83,12,159);fill-rule:nonzero;"/>
                        </g>
                        <g transform="matrix(4.16667,0,0,1.24108,0,0)">
                            <path d="M263.062,71.803C232.943,71.803 209.12,57.683 186.082,44.028C163.217,30.476 139.574,16.463 109.867,16.463C80.159,16.463 56.516,30.476 33.652,44.028C21.399,51.29 8.729,58.799 -4.755,64.1L-5.304,62.704C8.068,57.448 20.685,49.969 32.887,42.737C55.925,29.082 79.748,14.963 109.867,14.963C139.985,14.963 163.808,29.082 186.847,42.738C209.711,56.29 233.354,70.303 263.062,70.303C292.769,70.303 316.412,56.29 339.276,42.738C362.314,29.082 386.137,14.963 416.256,14.963L416.256,16.463C386.548,16.463 362.905,30.476 340.041,44.028C317.003,57.683 293.18,71.803 263.062,71.803Z" style="fill:rgb(83,12,159);fill-rule:nonzero;"/>
                        </g>
                        <g transform="matrix(4.16667,0,0,1.24108,0,0)">
                            <path d="M263.062,61.741C232.943,61.741 209.12,47.621 186.082,33.966C163.217,20.415 139.574,6.401 109.867,6.401C80.159,6.401 56.517,20.414 33.652,33.966C21.399,41.228 8.729,48.738 -4.755,54.038L-5.304,52.642C8.068,47.386 20.686,39.907 32.887,32.675C55.925,19.021 79.748,4.901 109.867,4.901C139.985,4.901 163.808,19.021 186.847,32.676C209.711,46.228 233.354,60.241 263.062,60.241C292.769,60.241 316.412,46.228 339.276,32.676C362.314,19.021 386.137,4.901 416.256,4.901L416.256,6.401C386.548,6.401 362.905,20.415 340.041,33.966C317.003,47.621 293.18,61.741 263.062,61.741Z" style="fill:rgb(83,12,159);fill-rule:nonzero;"/>
                        </g>
                        <g transform="matrix(4.16667,0,0,1.24108,0,0)">
                            <path d="M263.062,51.68C232.943,51.68 209.12,37.56 186.082,23.905C163.217,10.353 139.574,-3.661 109.867,-3.661C80.159,-3.661 56.517,10.353 33.652,23.904C21.399,31.166 8.729,38.676 -4.755,43.977L-5.304,42.581C8.068,37.324 20.686,29.846 32.888,22.614C55.926,8.959 79.748,-5.161 109.867,-5.161C139.985,-5.161 163.808,8.959 186.847,22.614C209.711,36.166 233.354,50.18 263.062,50.18C292.769,50.18 316.412,36.166 339.276,22.614C362.314,8.959 386.137,-5.161 416.256,-5.161L416.256,-3.661C386.548,-3.661 362.905,10.353 340.041,23.905C317.003,37.56 293.18,51.68 263.062,51.68Z" style="fill:rgb(83,12,159);fill-rule:nonzero;"/>
                        </g>
                        <g transform="matrix(4.16667,0,0,1.24108,0,0)">
                            <path d="M263.062,41.618C232.943,41.618 209.12,27.498 186.082,13.843C163.217,0.291 139.574,-13.722 109.867,-13.722C80.159,-13.722 56.517,0.291 33.652,13.842C21.399,21.104 8.729,28.614 -4.755,33.915L-5.304,32.519C8.068,27.262 20.686,19.784 32.887,12.552C55.925,-1.103 79.748,-15.222 109.867,-15.222C139.985,-15.222 163.808,-1.103 186.847,12.553C209.711,26.104 233.354,40.118 263.062,40.118C292.769,40.118 316.412,26.104 339.276,12.553C362.314,-1.103 386.137,-15.222 416.256,-15.222L416.256,-13.722C386.548,-13.722 362.905,0.291 340.041,13.843C317.003,27.498 293.18,41.618 263.062,41.618Z" style="fill:rgb(83,12,159);fill-rule:nonzero;"/>
                        </g>
                        <g transform="matrix(4.16667,0,0,1.24108,0,0)">
                            <path d="M263.062,31.556C232.942,31.556 209.118,17.435 186.079,3.78C173.797,-3.5 161.099,-11.026 147.626,-16.289L148.172,-17.687C161.758,-12.379 174.511,-4.82 186.843,2.489C209.709,16.042 233.353,30.056 263.062,30.056C292.769,30.056 316.412,16.042 339.276,2.491C351.61,-4.819 364.363,-12.378 377.951,-17.687L378.497,-16.289C365.023,-11.026 352.323,-3.499 340.041,3.781C317.003,17.436 293.18,31.556 263.062,31.556Z" style="fill:rgb(83,12,159);fill-rule:nonzero;"/>
                        </g>
                        <g transform="matrix(4.16667,0,0,1.24108,0,0)">
                            <path d="M-4.755,23.853L-5.304,22.457C8.068,17.2 20.685,9.722 32.887,2.49C45.221,-4.82 57.974,-12.379 71.56,-17.687L72.106,-16.289C58.634,-11.026 45.934,-3.499 33.652,3.78C21.399,11.042 8.729,18.552 -4.755,23.853Z" style="fill:rgb(83,12,159);fill-rule:nonzero;"/>
                        </g>
                        <g transform="matrix(4.16667,0,0,1.24108,0,0)">
                            <path d="M263.062,21.494C232.942,21.494 209.119,7.374 186.08,-6.281C180.406,-9.645 174.539,-13.122 168.675,-16.33L169.395,-17.646C175.282,-14.426 181.16,-10.941 186.845,-7.572C209.71,5.98 233.354,19.994 263.062,19.994C292.769,19.994 316.412,5.98 339.277,-7.571C344.962,-10.941 350.841,-14.425 356.729,-17.646L357.448,-16.33C351.583,-13.122 345.716,-9.644 340.042,-6.281C317.003,7.374 293.18,21.494 263.062,21.494Z" style="fill:rgb(83,12,159);fill-rule:nonzero;"/>
                        </g>
                        <g transform="matrix(4.16667,0,0,1.24108,0,0)">
                            <path d="M-4.755,13.791L-5.304,12.395C8.067,7.139 20.683,-0.338 32.884,-7.57C38.57,-10.94 44.45,-14.425 50.339,-17.646L51.059,-16.33C45.192,-13.121 39.324,-9.643 33.648,-6.279C21.397,0.982 8.728,8.491 -4.755,13.791Z" style="fill:rgb(83,12,159);fill-rule:nonzero;"/>
                        </g>
                        <g transform="matrix(4.16667,0,0,1.24108,0,0)">
                            <path d="M263.062,11.433C232.944,11.433 209.121,-2.688 186.082,-16.343L186.846,-17.633C209.711,-4.081 233.355,9.933 263.062,9.933C292.767,9.933 316.409,-4.08 339.272,-17.63L340.042,-16.343C317,-2.686 293.178,11.433 263.062,11.433Z" style="fill:rgb(83,12,159);fill-rule:nonzero;"/>
                        </g>
                        <g transform="matrix(4.16667,0,0,1.24108,0,0)">
                            <path d="M-4.755,3.73L-5.304,2.333C8.061,-2.92 20.671,-10.394 32.867,-17.622L33.651,-16.343C21.385,-9.073 8.722,-1.568 -4.755,3.73Z" style="fill:rgb(83,12,159);fill-rule:nonzero;"/>
                        </g>
                        <g transform="matrix(4.16667,0,0,1.24108,0,0)">
                            <path d="M263.062,1.37C239.121,1.37 219.535,-7.577 203.534,-16.33L204.253,-17.646C220.088,-8.984 239.458,-0.13 263.062,-0.13C286.665,-0.13 306.035,-8.984 321.871,-17.646L322.59,-16.33C306.589,-7.577 287.002,1.37 263.062,1.37Z" style="fill:rgb(83,12,159);fill-rule:nonzero;"/>
                        </g>
                    </g>
                </g>
            </g>
        </g>
    </g>
</svg>
